<svg xmlns="http://www.w3.org/2000/svg" viewBox="0 0 1024 1024" role="img" aria-labelledby="title desc">
  <title id="title">SDL-MCP sliced delta logo study</title>
  <desc id="desc">Six tapered black context slices form a delta around a centered double-triangle aperture.</desc>
  <rect width="1024" height="1024" fill="#fff"/>
  <g fill="#08090b">
    <path d="M512 118 650 300 430 270Z"/>
    <path d="M410 290 760 395 745 410 365 350Z"/>
    <path d="M350 410 835 540 815 558 280 460Z"/>
    <path d="M280 535 905 695 885 715 210 590Z"/>
    <path d="M210 660 970 850 945 872 135 715Z"/>
    <path d="M145 800 990 950 965 972 95 855Z"/>
  </g>
  <path d="M512 350 307 705 717 705Z" fill="#fff"/>
  <g fill="none" stroke="#08090b" stroke-linejoin="miter">
    <path d="M512 370 325 695 699 695Z" stroke-width="13"/>
    <path d="M512 394 346 680 678 680Z" stroke-width="9"/>
  </g>
  <g fill="none" stroke="#08090b" stroke-width="10" stroke-linejoin="miter" stroke-linecap="square">
    <path d="M512 448 552 606 476 606"/>
    <path d="M624 652 476 606 514 540"/>
    <path d="M400 652 514 540 552 606"/>
  </g>
</svg>
