<svg xmlns="http://www.w3.org/2000/svg" viewBox="0 0 520 224" width="520" height="224" role="img" aria-label="SDL — Symbol Delta Ledger">
  <g transform="translate(24,16) scale(0.75)">
    <g fill="none" stroke="#101826" stroke-width="18" stroke-linecap="round">
      <line x1="107.5" y1="96" x2="148.5" y2="96"/>
      <line x1="87" y1="132" x2="169" y2="132"/>
      <line x1="66.5" y1="168" x2="189.5" y2="168"/>
      <line x1="46" y1="204" x2="210" y2="204"/>
    </g>
    <circle cx="128" cy="60" r="11" fill="#0D9488"/>
  </g>
  <g transform="translate(230,62) scale(1.143)" fill="none" stroke="#101826" stroke-width="12" stroke-linecap="round" stroke-linejoin="round">
    <path d="M55,22 C51,10 41,5 31,5 C18,5 8,12 8,24 C8,36 19,41 31,44.5 C43,48 54,53 54,66 C54,79 44,87 31,87 C18,87 8,80 5,68"/>
    <path transform="translate(82,0)" d="M11,5 L11,87 M11,5 L27,5 C50,5 62,21 62,46 C62,71 50,87 27,87 L11,87"/>
    <path transform="translate(168,0)" d="M11,5 L11,87 L54,87"/>
  </g>
</svg>
