<svg xmlns="http://www.w3.org/2000/svg" viewBox="0 0 512 512" width="512" height="512" role="img" aria-label="SDL — Symbol Delta Ledger">
  <defs>
    <clipPath id="v4h" clipPathUnits="userSpaceOnUse">
      <path clip-rule="evenodd" d="M256,62 L71,421 L441,421 Z M256,179 L155.5,374 L356.5,374 Z"/>
    </clipPath>
    <linearGradient id="v4g0" x1="180" y1="341" x2="294" y2="341" gradientUnits="userSpaceOnUse">
      <stop offset="0" stop-color="#f1f5f9"/>
      <stop offset="1" stop-color="#6b7a90"/>
    </linearGradient>
    <linearGradient id="v4g1" x1="222" y1="317" x2="262" y2="222" gradientUnits="userSpaceOnUse">
      <stop offset="0" stop-color="#6b7a90"/>
      <stop offset="1" stop-color="#f1f5f9"/>
    </linearGradient>
    <linearGradient id="v4g2" x1="284" y1="250" x2="322" y2="360" gradientUnits="userSpaceOnUse">
      <stop offset="0" stop-color="#f1f5f9"/>
      <stop offset="1" stop-color="#6b7a90"/>
    </linearGradient>
  </defs>
  <g clip-path="url(#v4h)">
    <g transform="rotate(7 256 300)" fill="#101826">
      <rect x="-60" y="40" width="632" height="85"/>
      <rect x="-60" y="138" width="632" height="50"/>
      <rect x="-60" y="201" width="632" height="50"/>
      <rect x="-60" y="264" width="632" height="50"/>
      <rect x="-60" y="327" width="632" height="50"/>
      <rect x="-60" y="390" width="632" height="80"/>
    </g>
  </g>
  <g stroke="#101826" stroke-width="5" stroke-linejoin="miter">
    <path fill="url(#v4g0)" d="M169.4,365 L293.5,365 L269,317.4 L194,317.4 Z"/>
    <path fill="url(#v4g1)" d="M194,317.4 L256,197 L280.5,244.6 L243,317.4 Z"/>
    <path fill="url(#v4g2)" d="M280.5,244.6 L342.6,365 L293.5,365 L256,292.2 Z"/>
  </g>
</svg>
