<svg xmlns="http://www.w3.org/2000/svg" viewBox="0 0 512 512" width="512" height="512" role="img" aria-label="SDL — Symbol Delta Ledger">
  <defs>
    <clipPath id="v3hg" clipPathUnits="userSpaceOnUse">
      <path clip-rule="evenodd" d="M256,64 L76,448 L436,448 Z M256,182 L148.6,368 L363.4,368 Z"/>
    </clipPath>
    <linearGradient id="gb0" x1="169" y1="342" x2="310" y2="342" gradientUnits="userSpaceOnUse">
      <stop offset="0" stop-color="#e2e8f0"/>
      <stop offset="1" stop-color="#64748b"/>
    </linearGradient>
    <linearGradient id="gb1" x1="218" y1="328" x2="264" y2="220" gradientUnits="userSpaceOnUse">
      <stop offset="0" stop-color="#64748b"/>
      <stop offset="1" stop-color="#e2e8f0"/>
    </linearGradient>
    <linearGradient id="gb2" x1="272" y1="240" x2="335" y2="342" gradientUnits="userSpaceOnUse">
      <stop offset="0" stop-color="#e2e8f0"/>
      <stop offset="1" stop-color="#64748b"/>
    </linearGradient>
  </defs>
  <g clip-path="url(#v3hg)">
    <g transform="rotate(-6 256 300)" fill="#101826">
      <rect x="-60" y="52" width="632" height="52"/>
      <rect x="-60" y="126" width="632" height="52"/>
      <rect x="-60" y="200" width="632" height="52"/>
      <rect x="-60" y="274" width="632" height="52"/>
      <rect x="-60" y="348" width="632" height="52"/>
      <rect x="-60" y="422" width="632" height="52"/>
    </g>
  </g>
  <g stroke="#101826" stroke-width="8" stroke-linejoin="round">
    <path fill="url(#gb0)" d="M169.4,356 L310.3,356 L294.1,328 L185.6,328 Z"/>
    <path fill="url(#gb1)" d="M185.6,328 L256,206 L272.2,234 L217.9,328 Z"/>
    <path fill="url(#gb2)" d="M272.2,234 L342.6,356 L310.3,356 L256,262 Z"/>
  </g>
  <path fill="#101826" d="M256,289 L241.3,314.5 L270.7,314.5 Z"/>
</svg>
